<svg xmlns="http://www.w3.org/2000/svg" xmlns:xlink="http://www.w3.org/1999/xlink" viewBox="0 0 64 64"><defs><style>.cls-1{fill:url(#linear-gradient);}</style><linearGradient id="linear-gradient" x1="5.08" y1="31.98" x2="58.94" y2="31.98" gradientUnits="userSpaceOnUse"><stop offset="0" stop-color="#ffffff" id="id_105"></stop><stop offset="1" stop-color="#ffffff" id="id_106"></stop></linearGradient></defs><g id="Layer_68" data-name="Layer 68"><path class="cls-1" d="M40.32,28.27C51.71,20.2,46.13,2.12,32,2c-14.14.1-19.71,18.2-8.31,26.25A27,27,0,0,0,5.08,53.88c0,9,4.89,9.75,13.14,5.74,10.59-4.9,17-4.89,27.58,0,7.69,3.71,13.19,3.76,13.14-5.74A27,27,0,0,0,40.32,28.27ZM21.55,16.47A10.46,10.46,0,0,1,32,6c13.86.58,13.86,20.33,0,20.9A10.46,10.46,0,0,1,21.55,16.47ZM54.12,57.88c-.87.58-4.13-.82-6.74-1.94-4.24-1.81-9.51-4.06-15.37-4.06s-11.12,2.25-15.36,4.06c-2.62,1.12-5.87,2.52-6.74,1.94-.14-.09-.83-.71-.83-4a22.93,22.93,0,1,1,45.86,0C54.94,57.17,54.25,57.79,54.12,57.88Z" id="id_104"></path></g></svg>